<?xml version="1.0" standalone="no"?>
<!DOCTYPE svg PUBLIC "-//W3C//DTD SVG 20010904//EN"
 "http://www.w3.org/TR/2001/REC-SVG-20010904/DTD/svg10.dtd">
<svg version="1.0" xmlns="http://www.w3.org/2000/svg"
 width="993.000000pt" height="993.000000pt" viewBox="0 0 993.000000 993.000000"
 preserveAspectRatio="xMidYMid meet">
<metadata>
Created by potrace 1.14, written by Peter Selinger 2001-2017
</metadata>
<g transform="translate(0.000000,993.000000) scale(0.100000,-0.100000)"
fill="#000000" stroke="none">
<path d="M0 4965 l0 -4965 4965 0 4965 0 0 529 c0 408 -3 531 -13 534 -9 4 -9
6 1 6 10 1 12 886 12 4431 l0 4430 -3909 0 c-2604 0 -3912 -3 -3916 -10 -3 -5
-11 -10 -16 -10 -6 0 -7 5 -4 10 4 7 -293 10 -884 10 -582 0 -892 -3 -896 -10
-3 -5 -11 -10 -16 -10 -6 0 -7 5 -4 10 4 6 -45 10 -139 10 l-146 0 0 -4965z
m1360 4936 c0 -6 -4 -12 -9 -15 -13 -8 -42 4 -35 15 7 12 44 12 44 0z m7933
-22 c7 -26 -8 -24 -26 5 -15 22 -15 24 3 19 10 -3 20 -13 23 -24z m-8853 -18
c0 -12 -20 -25 -27 -18 -7 7 6 27 18 27 5 0 9 -4 9 -9z m620 -6 c-13 -15 -67
-45 -82 -45 -23 0 -3 23 35 40 52 23 63 24 47 5z m-900 1 c0 -3 -4 -8 -10 -11
-5 -3 -10 -1 -10 4 0 6 5 11 10 11 6 0 10 -2 10 -4z m8687 -36 c27 -21 23 -24
-14 -14 -13 4 -23 13 -23 20 0 19 7 18 37 -6z m440 4 c-3 -3 -12 -4 -19 -1 -8
3 -5 6 6 6 11 1 17 -2 13 -5z m-9087 -18 c0 -2 -8 -10 -17 -17 -16 -13 -17
-12 -4 4 13 16 21 21 21 13z m8780 -71 c11 -13 10 -14 -4 -9 -9 3 -16 10 -16
15 0 13 6 11 20 -6z m-7980 -95 c0 -5 -5 -10 -11 -10 -5 0 -7 5 -4 10 3 6 8
10 11 10 2 0 4 -4 4 -10z m8555 -30 c3 -5 1 -10 -4 -10 -6 0 -11 5 -11 10 0 6
2 10 4 10 3 0 8 -4 11 -10z m-375 -30 c0 -5 -2 -10 -4 -10 -3 0 -8 5 -11 10
-3 6 -1 10 4 10 6 0 11 -4 11 -10z m560 -34 c0 -2 3 -11 6 -20 3 -9 1 -16 -5
-16 -6 0 -11 6 -11 14 0 8 -6 17 -12 19 -8 3 -6 6 5 6 9 1 17 -1 17 -3z
m-9030 -31 c0 -2 -10 -10 -22 -16 -21 -11 -22 -11 -9 4 13 16 31 23 31 12z
m-52 -115 c-7 -11 -15 -15 -17 -9 -2 6 3 15 10 20 20 12 21 11 7 -11z m9197
-30 c3 -5 1 -10 -4 -10 -6 0 -11 5 -11 10 0 6 2 10 4 10 3 0 8 -4 11 -10z
m-243 -52 c-7 -7 -12 -8 -12 -2 0 14 12 26 19 19 2 -3 -1 -11 -7 -17z m-8822
8 c0 -3 -4 -8 -10 -11 -5 -3 -10 -1 -10 4 0 6 5 11 10 11 6 0 10 -2 10 -4z
m-490 -14 c0 -4 -9 -15 -20 -25 -22 -19 -25 -15 -10 14 11 19 30 26 30 11z
m437 -40 c-15 -14 -27 -21 -27 -15 0 15 41 55 49 48 3 -3 -7 -18 -22 -33z
m323 -22 c-6 -11 -15 -20 -20 -20 -13 0 -12 8 3 25 18 21 29 18 17 -5z m8571
-21 c9 0 10 -2 2 -5 -15 -7 -53 13 -53 28 0 6 8 4 18 -5 10 -10 25 -17 33 -18z
m262 16 c4 -8 2 -17 -3 -20 -6 -4 -10 -4 -10 -1 0 2 -3 11 -6 20 -3 9 -2 16 4
16 5 0 12 -7 15 -15z m-9483 -185 c0 -5 -5 -10 -11 -10 -5 0 -7 5 -4 10 3 6 8
10 11 10 2 0 4 -4 4 -10z m320 -86 c0 -17 -28 -49 -36 -41 -7 6 17 57 28 57 4
0 8 -7 8 -16z m-380 -223 c0 -10 -6 -21 -14 -24 -11 -4 -11 -1 -2 19 13 29 16
30 16 5z m625 -121 c3 -5 1 -10 -4 -10 -6 0 -11 5 -11 10 0 6 2 10 4 10 3 0 8
-4 11 -10z m-845 -221 c0 -5 -7 -9 -15 -9 -8 0 -15 7 -15 15 0 9 6 12 15 9 8
-4 15 -10 15 -15z m285 -29 c3 -5 1 -10 -4 -10 -6 0 -11 5 -11 10 0 6 2 10 4
10 3 0 8 -4 11 -10z m5652 -401 c12 -10 16 -10 24 2 6 9 12 10 17 4 8 -11 92
-55 105 -55 14 0 88 -73 84 -84 -4 -13 119 -135 150 -147 14 -5 24 -16 22 -26
-3 -34 3 -108 8 -89 4 16 7 15 24 -10 l19 -29 1 25 c0 16 5 7 14 -25 17 -60
19 -88 5 -80 -6 4 -10 -5 -10 -21 0 -15 -3 -25 -6 -21 -11 10 -34 -20 -34 -44
0 -29 22 -89 32 -89 4 0 8 -8 8 -19 0 -13 9 -20 30 -25 28 -5 29 -7 18 -26
-11 -19 -10 -24 10 -40 13 -11 20 -24 16 -34 -6 -16 31 -85 53 -99 7 -4 13
-16 13 -25 0 -26 21 -44 35 -32 9 8 11 4 7 -15 -2 -15 0 -25 7 -25 6 0 12 5
12 10 1 6 3 15 4 20 1 6 3 15 4 20 0 6 6 10 11 10 7 0 8 -17 5 -47 -6 -40 -3
-52 14 -70 16 -17 20 -36 22 -100 1 -43 6 -83 11 -90 12 -15 1 -36 -14 -27
-18 12 2 -108 20 -123 15 -11 15 -14 2 -23 -13 -8 -13 -11 -1 -19 8 -5 11 -16
8 -24 -3 -8 3 -40 14 -72 10 -32 19 -69 19 -82 0 -12 5 -23 10 -23 6 0 10 -12
10 -27 0 -14 -3 -23 -7 -20 -3 4 -12 2 -19 -4 -11 -9 -9 -16 6 -37 35 -47 20
-211 -22 -240 -26 -19 -25 -83 2 -102 11 -8 20 -25 20 -38 0 -13 4 -21 9 -18
21 13 17 -23 -5 -50 -27 -34 -30 -50 -10 -57 10 -4 14 -19 13 -46 -1 -22 1
-37 5 -35 5 3 11 -8 14 -25 4 -19 11 -28 19 -25 21 9 29 -34 11 -61 -21 -32
-20 -42 4 -50 11 -4 18 -11 14 -16 -10 -17 7 -69 23 -69 10 0 13 -6 9 -17 -4
-9 -1 -20 5 -24 8 -4 11 -32 10 -77 -1 -59 1 -73 17 -84 25 -17 36 -77 46
-246 5 -74 8 -86 31 -104 25 -19 35 -68 15 -68 -5 0 -10 -19 -10 -42 0 -49 23
-122 34 -111 4 5 6 -20 4 -54 -1 -33 0 -59 4 -57 3 2 8 -19 10 -47 1 -28 0
-53 -5 -56 -4 -2 -4 -10 0 -16 4 -7 8 -46 9 -87 1 -76 12 -124 44 -195 11 -22
24 -60 30 -85 7 -25 16 -53 21 -62 5 -10 9 -25 9 -33 0 -8 5 -15 10 -15 6 0
10 -7 10 -16 0 -8 23 -63 50 -121 28 -58 50 -111 50 -119 0 -7 4 -15 9 -18 10
-6 21 -76 27 -165 2 -36 8 -67 13 -70 8 -6 12 -41 27 -223 6 -66 4 -82 -12
-105 -12 -17 -22 -56 -26 -98 -10 -99 -19 -145 -29 -145 -5 0 -9 -9 -9 -20 0
-41 -37 -100 -63 -100 -7 0 -19 -11 -25 -25 -16 -35 -15 -38 8 -32 15 4 20 0
20 -14 0 -10 5 -19 10 -19 6 0 10 -5 10 -12 0 -6 -3 -9 -6 -5 -13 13 -35 -23
-28 -45 3 -12 6 -42 6 -67 -1 -45 -25 -80 -64 -93 -9 -4 -5 -11 12 -26 22 -18
24 -23 12 -42 -10 -17 -11 -25 -1 -36 9 -11 9 -18 1 -26 -7 -7 -12 -20 -12
-30 0 -10 -4 -18 -10 -18 -5 0 -10 -7 -10 -15 0 -8 -4 -15 -10 -15 -5 0 -10
-7 -10 -15 0 -18 -1 -18 -34 -5 -35 13 -66 -26 -66 -85 0 -29 -5 -45 -15 -49
-8 -3 -14 -9 -13 -13 5 -19 -14 -52 -27 -47 -8 3 -25 -5 -37 -18 -48 -48 -70
-62 -111 -67 -53 -7 -50 -27 3 -23 22 2 40 0 40 -5 0 -15 -40 -73 -50 -73 -5
0 -16 -13 -24 -29 -11 -21 -12 -31 -3 -40 8 -8 7 -11 -6 -11 -9 0 -17 5 -17
10 0 7 -8 7 -22 -1 -23 -12 -23 -12 -4 9 10 12 22 19 26 17 4 -3 10 1 13 8 3
8 0 14 -6 14 -7 0 -20 4 -29 8 -13 5 -18 3 -18 -8 0 -8 -13 -26 -29 -40 -22
-18 -27 -27 -18 -36 8 -8 5 -11 -11 -11 -26 0 -38 3 -35 10 1 3 -12 5 -28 6
-16 1 -29 -2 -29 -6 0 -4 -11 -15 -24 -23 -18 -12 -32 -14 -55 -7 -18 5 -33 5
-36 -1 -4 -5 -25 -9 -47 -9 -29 0 -49 -7 -65 -22 -22 -21 -23 -21 -43 -3 -14
12 -28 16 -50 12 -22 -5 -30 -3 -30 7 0 28 -30 28 -128 0 -11 -3 -10 -7 2 -20
21 -21 20 -34 -2 -34 -22 0 -55 33 -45 45 5 4 -5 5 -20 1 -33 -8 -100 8 -122
30 -11 12 -12 20 -4 35 9 18 8 20 -12 17 -14 -2 -32 6 -47 21 -14 14 -30 21
-43 18 -15 -4 -19 0 -19 18 0 13 5 27 11 31 7 4 -1 14 -20 26 -17 11 -31 24
-31 30 0 5 -5 6 -10 3 -6 -3 -13 1 -16 9 -3 9 -12 16 -19 16 -7 0 -18 15 -25
32 -20 54 -33 78 -42 78 -4 0 -8 9 -8 19 0 11 -5 23 -10 26 -8 5 -7 11 1 21 9
11 9 18 1 26 -19 19 -14 37 8 33 17 -3 20 1 18 23 -2 17 1 26 10 25 14 -3 16
13 2 22 -5 3 -10 29 -10 56 0 31 4 48 10 44 6 -4 10 7 10 25 0 24 9 40 40 67
45 41 49 61 20 88 -12 10 -19 24 -16 31 3 7 -5 16 -17 20 -31 10 -50 31 -34
37 6 3 -15 6 -49 6 -33 1 -63 4 -67 7 -11 11 -158 14 -177 4 -28 -15 -360 -16
-387 -2 -13 8 -30 9 -45 4 -26 -10 -74 -9 -85 1 -11 11 -163 8 -163 -3 0 -5
-8 -10 -17 -10 -24 0 -83 -23 -83 -32 0 -5 -9 -3 -20 4 -27 17 -48 -3 -26 -25
25 -24 9 -49 -25 -42 -27 6 -29 5 -29 -25 0 -18 4 -29 10 -25 6 4 10 -16 10
-54 0 -38 -4 -61 -12 -64 -10 -4 -9 -8 2 -16 10 -7 17 -6 22 2 4 7 8 9 8 5 0
-8 -39 -77 -55 -98 -7 -8 -16 -28 -20 -45 l-8 -30 -7 25 -8 25 -2 -25 c-1 -14
-2 -34 -1 -45 2 -17 0 -17 -8 -5 -9 13 -11 13 -11 -2 0 -29 -2 -32 -24 -48
-31 -22 -48 -22 -36 0 9 17 4 30 -12 30 -4 0 -8 -13 -8 -29 0 -16 -7 -34 -15
-41 -9 -7 -13 -20 -10 -30 4 -11 -8 -26 -39 -48 -25 -18 -48 -42 -51 -53 -5
-14 -13 -19 -25 -16 -27 7 -54 -12 -40 -28 18 -22 -18 -65 -48 -58 -12 3 -29
0 -37 -7 -20 -17 -54 -3 -61 26 -7 27 -62 74 -87 74 -9 0 -19 5 -22 10 -9 15
-54 12 -71 -4 -27 -28 -15 -59 45 -124 19 -21 39 -36 44 -34 6 2 7 -7 2 -20
-3 -13 -6 -37 -6 -53 2 -39 -86 -139 -112 -129 -10 3 -17 2 -17 -3 0 -6 -11
-23 -25 -39 -14 -16 -30 -35 -36 -42 -6 -7 -24 -15 -40 -19 -17 -3 -29 -12
-29 -21 0 -8 -10 -24 -22 -36 -13 -12 -30 -32 -38 -44 -19 -29 -131 -58 -211
-55 -30 2 -66 3 -81 3 -19 1 -33 10 -48 34 -11 19 -27 37 -35 40 -27 10 -16
24 16 19 27 -4 29 -3 18 14 -12 21 -16 23 -103 67 -42 21 -62 39 -76 67 -11
21 -29 40 -40 44 -12 4 -20 16 -21 28 0 12 -3 16 -6 10 -6 -16 -44 30 -62 74
-7 18 -17 30 -22 27 -5 -3 -9 4 -9 15 0 25 -20 71 -32 71 -4 0 -8 7 -8 15 0 8
-4 23 -9 33 -5 9 -15 36 -22 60 -7 23 -16 42 -21 42 -4 0 -8 11 -8 25 0 14 -4
25 -10 25 -5 0 -10 15 -10 33 0 18 -4 37 -10 43 -17 17 -60 152 -68 216 -9 66
-1 187 15 248 13 46 80 187 93 195 5 3 10 14 10 23 0 16 37 48 51 44 4 -1 4 8
1 20 -3 13 1 24 12 30 10 6 16 22 16 48 0 22 5 40 10 40 6 0 11 8 11 18 1 9 5
1 9 -18 6 -27 8 -18 9 43 1 50 -3 76 -9 72 -6 -4 -10 28 -10 89 0 57 -4 96
-10 96 -6 0 -10 30 -10 69 0 39 -4 73 -10 76 -6 4 -10 65 -10 151 0 80 -4 143
-8 140 -4 -3 -8 38 -9 91 0 52 3 90 7 83 4 -7 9 23 10 66 3 124 7 174 14 181
3 3 6 51 6 105 0 59 4 98 10 98 6 0 10 52 10 135 0 81 4 135 10 135 14 0 11
233 -3 242 -7 4 -11 40 -10 92 1 47 -2 88 -7 91 -6 4 -10 35 -10 71 0 36 -5
75 -11 86 -6 11 -11 46 -10 76 0 34 -5 59 -12 64 -9 6 -9 8 1 8 7 0 12 14 11
38 -1 37 -1 37 -9 7 -7 -26 -8 -24 -9 19 -1 32 -6 53 -17 61 -9 6 -18 32 -21
61 -3 28 -14 58 -25 70 -23 26 -25 122 -1 102 7 -6 14 -27 14 -47 1 -20 3 -28
6 -18 6 24 -16 155 -28 163 -5 3 -9 31 -9 62 0 31 -4 72 -9 89 -5 18 -11 72
-12 120 -2 48 -7 94 -12 100 -11 15 -2 445 13 588 18 178 25 216 65 340 9 28
21 68 28 90 38 134 124 248 232 306 54 29 69 32 150 34 50 0 98 5 109 10 24
11 50 -6 54 -35 2 -13 17 -37 33 -53 17 -16 48 -55 69 -87 26 -38 47 -59 65
-62 14 -3 25 -1 25 5 0 5 9 7 20 4 11 -3 18 -1 14 4 -6 11 -8 11 144 9 81 -1
122 2 122 9 0 6 9 11 19 11 11 0 28 11 38 24 10 13 30 27 43 31 14 4 28 13 33
19 5 8 9 8 15 0 12 -18 36 -22 50 -7 7 7 28 13 45 14 18 0 26 3 19 6 -15 6 30
33 54 33 8 0 14 3 14 8 0 8 49 32 67 32 7 0 13 5 13 10 0 6 9 10 19 10 11 0
23 5 26 10 3 6 15 10 25 10 10 0 20 4 22 9 2 6 14 12 28 15 36 6 64 18 72 30
4 6 29 11 55 13 26 1 77 5 111 9 56 6 63 9 59 25 -3 12 0 19 9 19 8 0 14 -4
14 -9 0 -11 57 -20 164 -26 44 -3 103 -14 132 -25 50 -18 149 -26 139 -10 -2
4 12 7 33 7 41 1 64 9 137 51 31 18 51 36 51 48 1 10 2 25 3 32 1 6 8 12 16
12 8 0 15 3 15 8 0 12 65 52 84 52 21 0 51 28 51 48 0 8 14 23 32 33 17 10 51
36 75 59 48 46 148 99 198 105 18 3 34 6 36 8 9 9 78 6 91 -4z m-1912 -619 c3
-5 -1 -10 -10 -10 -9 0 -13 5 -10 10 3 6 8 10 10 10 2 0 7 -4 10 -10z m-205
-70 c0 -5 -4 -10 -10 -10 -5 0 -10 5 -10 10 0 6 5 10 10 10 6 0 10 -4 10 -10z
m2739 -44 c9 -10 8 -16 -4 -26 -13 -11 -15 -8 -15 14 0 30 3 32 19 12z m53
-78 c-7 -7 -12 -8 -12 -2 0 14 12 26 19 19 2 -3 -1 -11 -7 -17z m-4 -52 c25
-30 28 -46 8 -46 -22 0 -36 24 -41 71 -2 25 -1 35 3 22 4 -12 17 -33 30 -47z
m127 -572 c1 -11 4 -25 9 -32 4 -7 6 -16 3 -19 -10 -9 -27 8 -27 28 0 11 -7
22 -15 25 -8 4 -15 15 -15 26 0 19 2 19 23 5 12 -8 22 -23 22 -33z m-2 -86 c6
-22 5 -22 -8 -4 -17 22 -20 40 -6 32 5 -3 11 -16 14 -28z m9 -510 c-7 -7 -12
-20 -12 -31 0 -10 -4 -15 -10 -12 -16 10 -12 37 7 51 21 15 32 9 15 -8z m18
-59 c0 -6 -4 -7 -10 -4 -5 3 -10 11 -10 16 0 6 5 7 10 4 6 -3 10 -11 10 -16z
m-3953 -2281 c-3 -8 -6 -5 -6 6 -1 11 2 17 5 13 3 -3 4 -12 1 -19z m-2547
-1389 c0 -11 -4 -18 -10 -14 -5 3 -7 12 -3 20 7 21 13 19 13 -6z m6653 -286
c-6 -2 -23 -15 -37 -28 -15 -14 -33 -22 -41 -19 -22 9 -18 24 6 24 11 0 32 9
46 20 15 11 29 17 32 14 3 -4 1 -9 -6 -11z m-3080 -117 c24 -18 21 -26 -8 -26
-18 0 -25 5 -25 20 0 23 8 25 33 6z m97 -110 c0 -3 -4 -8 -10 -11 -5 -3 -10
-1 -10 4 0 6 5 11 10 11 6 0 10 -2 10 -4z m-5 -66 c-3 -5 -10 -10 -16 -10 -5
0 -9 5 -9 10 0 6 7 10 16 10 8 0 12 -4 9 -10z m5495 -370 c0 -5 -4 -10 -10
-10 -5 0 -10 5 -10 10 0 6 5 10 10 10 6 0 10 -4 10 -10z"/>
<path d="M6511 7454 c0 -11 3 -14 6 -6 3 7 2 16 -1 19 -3 4 -6 -2 -5 -13z"/>
<path d="M4758 7388 c-27 -11 -48 -27 -48 -34 0 -8 -4 -14 -9 -14 -15 0 -59
-47 -52 -56 10 -15 95 -34 106 -23 12 12 45 12 45 -1 0 -18 84 -11 118 10 18
11 39 20 47 20 23 0 26 16 10 54 -8 20 -13 36 -9 36 3 0 -1 7 -10 15 -22 23
-139 19 -198 -7z"/>
<path d="M3210 7300 c0 -5 -6 -10 -13 -10 -16 0 -76 -55 -103 -95 -11 -16 -35
-66 -53 -110 -49 -123 -66 -263 -66 -552 0 -133 2 -243 5 -246 3 -2 15 -7 26
-11 20 -6 22 -2 26 36 3 24 1 48 -4 55 -10 13 -2 49 15 71 8 10 14 9 33 -3 31
-20 37 -19 31 5 -9 33 11 33 28 0 9 -18 13 -40 10 -51 -6 -17 -3 -20 12 -17
15 3 17 11 15 43 -2 22 -10 44 -18 48 -21 12 -17 29 6 22 15 -5 20 -2 20 13 0
18 47 49 57 38 3 -3 -7 -20 -21 -39 -31 -40 -31 -43 -8 -49 9 -3 23 -17 31
-31 13 -25 13 -29 -7 -50 -30 -31 -28 -36 13 -34 24 1 35 7 35 18 0 24 10 29
38 18 32 -12 54 -5 46 16 -4 10 -13 13 -26 9 -18 -5 -19 -2 -14 56 6 68 11 80
32 80 8 0 14 9 14 21 0 11 4 18 9 14 6 -3 9 16 9 45 -2 66 -18 77 -18 12 0
-48 -20 -82 -47 -82 -21 0 -21 51 0 70 18 17 18 20 3 35 -23 23 -11 94 21 118
13 10 23 29 23 43 0 23 2 24 38 18 20 -4 44 -10 52 -14 8 -4 27 -10 42 -14 21
-5 28 -2 33 13 5 17 10 18 35 8 36 -14 47 -5 34 30 -7 20 -27 36 -69 57 -33
15 -76 36 -95 46 -19 10 -59 23 -87 30 -29 6 -53 16 -53 21 0 6 12 21 27 35
27 25 27 25 5 31 -16 4 -19 9 -13 22 28 55 21 156 -11 164 -16 5 -18 9 -9 26
16 30 15 31 -39 31 -27 0 -50 -4 -50 -10z m-1 -342 c21 -7 44 -20 50 -30 10
-16 7 -18 -31 -18 -67 0 -118 18 -118 40 0 24 39 27 99 8z m141 -133 c0 -8 -6
-15 -14 -15 -17 0 -28 14 -19 24 12 12 33 6 33 -9z m-81 -182 c0 -21 -3 -32
-6 -25 -7 18 -23 15 -23 -5 0 -10 -14 -33 -31 -51 -29 -32 -49 -35 -49 -6 0 8
-7 14 -15 14 -8 0 -15 4 -15 8 0 16 24 32 48 32 15 0 26 7 29 20 3 11 11 20
18 20 7 0 18 7 25 15 18 22 20 19 19 -22z m1 -133 c0 -5 -5 -10 -11 -10 -5 0
-7 5 -4 10 3 6 8 10 11 10 2 0 4 -4 4 -10z m20 -75 c0 -8 -4 -15 -10 -15 -5 0
-10 7 -10 15 0 8 5 15 10 15 6 0 10 -7 10 -15z"/>
<path d="M4400 7288 c-14 -13 -26 -21 -28 -19 -2 2 -11 -1 -21 -7 -9 -7 -45
-30 -80 -53 -68 -43 -164 -136 -212 -205 -16 -23 -52 -91 -80 -150 -64 -134
-66 -141 -74 -183 l-7 -33 33 18 c53 30 72 53 134 159 32 55 72 122 89 150 17
27 36 75 43 107 14 67 49 124 67 109 7 -6 17 -5 29 3 9 7 28 11 42 8 15 -2 25
0 25 7 0 6 -10 11 -22 11 -23 1 -23 1 2 15 14 7 27 9 28 4 5 -14 28 -11 41 5
9 11 9 15 0 18 -7 2 -10 9 -6 15 5 7 18 7 45 0 42 -11 77 -4 67 13 -4 6 -15 8
-26 5 -14 -5 -17 -3 -13 9 10 25 -48 20 -76 -6z"/>
<path d="M4590 7280 c0 -5 9 -10 21 -10 11 0 17 5 14 10 -3 6 -13 10 -21 10
-8 0 -14 -4 -14 -10z"/>
<path d="M3898 7233 c7 -3 16 -2 19 1 4 3 -2 6 -13 5 -11 0 -14 -3 -6 -6z"/>
<path d="M4753 7233 c9 -2 23 -2 30 0 6 3 -1 5 -18 5 -16 0 -22 -2 -12 -5z"/>
<path d="M6722 6878 c-13 -13 -16 -48 -4 -48 14 0 32 23 32 42 0 21 -11 23
-28 6z"/>
<path d="M3410 6665 c-7 -9 -10 -18 -6 -22 3 -3 6 -1 6 6 0 7 4 10 9 6 5 -3
12 -1 15 4 11 17 -11 21 -24 6z"/>
<path d="M6360 6664 c0 -8 5 -12 10 -9 6 4 8 11 5 16 -9 14 -15 11 -15 -7z"/>
<path d="M6690 6660 c0 -6 7 -10 15 -10 8 0 15 2 15 4 0 2 -7 6 -15 10 -8 3
-15 1 -15 -4z"/>
<path d="M6710 6616 c0 -8 5 -18 10 -21 6 -3 10 3 10 14 0 12 -4 21 -10 21 -5
0 -10 -6 -10 -14z"/>
<path d="M6303 6485 c-8 -22 6 -33 17 -15 13 20 12 30 0 30 -6 0 -13 -7 -17
-15z"/>
<path d="M5253 6464 c-6 -16 15 -37 29 -28 4 3 8 14 8 25 0 23 -28 26 -37 3z"/>
<path d="M6785 6470 c-3 -5 -1 -10 4 -10 6 0 11 5 11 10 0 6 -2 10 -4 10 -3 0
-8 -4 -11 -10z"/>
<path d="M6325 6401 c-6 -11 9 -23 19 -14 9 9 7 23 -3 23 -6 0 -12 -4 -16 -9z"/>
<path d="M6380 6371 c0 -22 16 -36 24 -22 8 12 -3 41 -15 41 -5 0 -9 -9 -9
-19z"/>
<path d="M3094 6364 c3 -9 6 -21 6 -27 0 -8 3 -8 10 -1 12 12 3 44 -12 44 -6
0 -7 -7 -4 -16z"/>
<path d="M6235 6336 c-20 -14 -14 -20 27 -30 38 -9 62 -34 48 -52 -7 -7 -9
-23 -5 -34 l7 -22 24 23 c13 12 21 25 19 30 -3 4 -1 10 4 14 5 3 14 -2 19 -12
11 -18 -19 -87 -38 -89 -6 -1 -14 -2 -20 -3 -5 0 -10 -9 -10 -18 -1 -17 -1
-17 -14 0 -13 17 -52 25 -41 8 3 -5 1 -12 -4 -16 -7 -4 -6 -14 1 -30 6 -14 16
-21 22 -18 6 4 5 0 -2 -9 -20 -25 -52 -30 -52 -8 0 11 -10 26 -21 34 -21 14
-21 16 -5 49 22 48 20 68 -4 37 -11 -14 -20 -36 -20 -49 0 -13 -7 -29 -15 -35
-14 -10 -14 -15 0 -44 18 -35 13 -54 -12 -45 -10 4 -14 2 -10 -4 4 -6 0 -16
-8 -23 -8 -7 -15 -18 -15 -25 0 -6 -11 -18 -25 -25 -13 -7 -22 -18 -18 -23 3
-6 2 -7 -3 -4 -6 3 -16 2 -24 -4 -9 -5 -10 -9 -3 -9 8 0 11 -16 8 -51 -4 -57
-25 -109 -52 -130 -17 -13 -17 -13 -3 5 14 18 13 19 -3 13 -10 -4 -23 -7 -28
-7 -6 0 -8 -4 -4 -9 9 -15 -34 -33 -62 -26 -23 5 -25 10 -19 43 3 20 12 42 21
48 19 14 19 24 -1 24 -9 0 -18 -9 -21 -20 -6 -23 -41 -35 -72 -25 -30 9 -51
-16 -51 -62 0 -22 -5 -44 -12 -51 -23 -23 -38 -16 -102 46 -13 12 -27 22 -33
22 -11 0 -146 -70 -153 -79 -3 -4 -13 -10 -22 -14 -24 -8 -23 13 0 55 27 48
62 145 61 171 0 14 -15 -8 -42 -59 -56 -109 -158 -264 -174 -264 -27 0 -128
-64 -188 -120 -36 -33 -211 -144 -257 -162 -30 -12 -22 -54 16 -83 31 -24 34
-29 25 -54 -9 -26 -12 -27 -44 -17 -19 6 -35 14 -35 18 0 3 -18 -3 -39 -15
-36 -20 -41 -20 -58 -6 -24 21 -43 14 -43 -17 0 -25 -14 -32 -24 -11 -5 10 -7
10 -12 0 -3 -7 -17 -13 -30 -13 -14 0 -22 4 -19 10 3 6 -4 10 -17 10 -16 0
-19 -3 -10 -9 19 -11 -6 -17 -86 -20 -67 -2 -99 7 -66 20 18 7 18 8 -2 8 -11
1 -24 -3 -30 -9 -5 -5 -51 -10 -102 -11 -51 -1 -95 -5 -97 -10 -3 -5 -33 -7
-66 -6 -33 1 -63 -3 -67 -9 -4 -5 -26 -11 -50 -12 -38 -1 -45 2 -60 28 -9 17
-25 30 -34 30 -27 0 -48 11 -48 26 0 20 -18 17 -22 -3 -3 -14 -8 -11 -21 14
-9 18 -17 40 -17 50 0 23 -34 75 -43 67 -4 -4 1 -20 10 -35 23 -38 9 -48 -21
-16 -14 15 -30 27 -36 27 -14 0 -13 27 3 33 9 4 8 8 -3 16 -21 15 -35 8 -35
-16 0 -32 -15 -40 -31 -19 -8 11 -14 14 -14 8 0 -20 -38 -13 -54 10 -9 12 -16
35 -16 50 0 15 -4 30 -10 33 -5 3 -10 14 -10 23 0 9 -8 26 -17 37 -15 19 -15
19 -8 -5 14 -52 34 -146 35 -162 0 -26 -37 -23 -51 4 -10 19 -12 20 -21 4 -6
-10 -8 -26 -5 -37 3 -10 1 -19 -4 -19 -5 0 -9 9 -9 20 0 11 -7 20 -15 20 -8 0
-15 5 -15 10 0 15 -26 12 -40 -5 -9 -10 -9 -15 -1 -15 6 0 11 -5 11 -11 0 -6
10 -19 23 -30 12 -10 16 -18 10 -19 -9 0 -13 -17 -13 -52 0 -28 -3 -48 -6 -45
-11 10 -40 -36 -42 -66 -3 -44 -11 -49 -37 -21 -13 14 -29 23 -34 19 -15 -9
-14 -26 2 -23 17 4 10 -72 -9 -93 -8 -8 -14 -26 -14 -38 0 -29 -24 -22 -28 8
l-4 23 -15 -22 c-11 -16 -12 -25 -4 -33 6 -6 11 -20 11 -31 0 -19 0 -19 -14
-1 -14 19 -14 19 -15 -5 -3 -76 -17 -197 -24 -207 -5 -8 -4 -13 2 -13 6 0 11
-7 11 -15 0 -8 -3 -15 -8 -15 -4 0 -8 -28 -10 -62 -3 -74 -18 -219 -33 -303
-5 -33 -11 -110 -12 -172 -1 -61 -5 -109 -9 -106 -5 2 -8 -5 -8 -16 0 -12 5
-21 10 -21 6 0 10 -7 10 -15 0 -8 5 -15 10 -15 6 0 10 -11 10 -25 0 -14 -4
-25 -9 -25 -10 0 -20 -77 -13 -97 2 -7 8 -10 13 -7 5 3 9 0 9 -6 0 -6 5 -8 10
-5 6 4 10 -10 10 -34 0 -22 -4 -43 -10 -46 -5 -3 -10 -18 -10 -33 0 -22 2 -24
11 -12 9 12 9 11 4 -5 -16 -44 -17 -55 -6 -55 6 0 11 -9 11 -19 0 -11 5 -23
11 -27 6 -3 9 -15 6 -25 -4 -16 -1 -18 21 -13 15 4 37 13 50 21 22 14 22 16 8
38 -33 50 -11 85 51 85 15 0 41 7 58 16 37 19 72 11 87 -22 9 -20 18 -25 42
-23 17 2 33 -1 35 -6 10 -26 43 -35 133 -34 153 2 194 -1 180 -10 -23 -14 17
-19 101 -12 42 4 77 3 77 -1 0 -4 -17 -8 -37 -10 -21 -2 16 -4 83 -4 112 -1
123 -3 167 -28 26 -16 47 -24 48 -19 1 4 4 -3 8 -17 7 -24 9 -25 90 -22 80 3
82 2 71 -18 -9 -17 -8 -20 10 -20 12 0 18 -4 15 -10 -3 -6 4 -10 18 -10 25 0
57 -27 57 -48 0 -7 6 -12 13 -12 7 0 18 -9 24 -20 7 -10 34 -26 60 -34 27 -8
42 -15 35 -15 -23 -2 -2 -21 23 -21 13 0 30 -7 39 -15 8 -8 26 -15 40 -15 14
0 26 -4 26 -10 0 -5 11 -10 24 -10 14 0 28 -4 31 -10 3 -5 21 -10 39 -10 17 0
37 -5 43 -11 6 -6 28 -12 49 -14 22 -1 50 -6 64 -10 27 -9 129 -17 200 -17 63
0 268 20 279 27 5 3 29 6 53 6 23 1 48 5 53 9 6 4 37 12 70 19 33 7 74 16 91
22 17 5 40 9 52 9 12 0 30 4 40 9 9 5 42 14 73 21 31 6 65 19 76 30 17 15 34
18 87 17 41 -1 70 3 78 11 6 6 22 12 35 12 13 0 23 5 23 10 0 6 9 10 20 10 11
0 20 5 20 10 0 6 9 10 20 10 11 0 20 5 20 10 0 6 7 10 15 10 8 0 19 9 25 20 7
13 21 20 39 20 20 0 30 6 34 20 3 14 14 20 31 20 14 0 27 5 27 10 1 6 3 15 4
20 1 6 3 15 4 20 0 6 12 10 26 10 14 0 25 5 25 10 0 6 21 10 48 10 34 0 43 3
32 10 -12 8 -11 10 8 10 12 0 22 5 22 10 0 6 16 10 35 10 19 0 35 -5 35 -11 0
-8 5 -7 15 1 13 11 13 15 3 21 -9 6 -8 9 6 9 11 0 17 3 13 6 -3 4 -1 12 6 18
17 16 64 36 71 29 3 -3 54 -5 113 -5 90 1 111 4 134 21 26 19 28 19 43 2 9
-10 16 -27 16 -39 0 -11 5 -24 10 -27 6 -3 10 -15 10 -26 0 -23 20 -21 30 2 4
8 12 24 18 36 26 50 12 114 -60 272 -11 24 -31 54 -44 66 -13 12 -24 30 -24
39 0 16 -4 26 -28 73 -7 13 -12 32 -12 43 0 11 -5 19 -12 18 -7 -2 -15 18 -20
50 -4 29 -17 70 -28 92 -11 22 -20 52 -20 68 0 15 -4 32 -9 38 -5 5 -11 36
-14 69 -5 66 -14 109 -27 140 -5 11 -11 45 -13 75 -12 150 -19 205 -28 208 -5
2 -9 33 -9 68 0 35 -4 64 -9 64 -5 0 -11 19 -14 43 -2 23 -12 68 -21 100 -9
32 -16 76 -16 98 0 21 -4 47 -9 57 -14 25 -23 54 -26 76 -1 11 -7 22 -13 24
-7 2 -12 15 -12 28 0 14 -4 22 -10 19 -6 -4 -10 8 -10 30 0 22 -4 34 -10 30
-6 -4 -10 7 -10 27 0 18 -7 41 -15 52 -8 10 -17 38 -21 62 -3 25 -10 47 -15
50 -5 3 -9 25 -9 50 0 28 -4 43 -10 39 -6 -4 -10 7 -10 25 0 17 -4 29 -9 25
-15 -8 -31 29 -31 69 0 20 -4 36 -10 36 -15 0 -12 40 3 40 6 1 0 7 -14 15 -21
12 -25 20 -21 42 3 15 10 31 16 35 6 5 1 8 -11 8 -23 0 -32 23 -13 35 17 11
11 35 -9 35 -28 0 -34 27 -8 35 21 7 20 8 -6 12 -16 3 -31 12 -34 21 -4 9 -11
20 -17 25 -7 5 -6 10 4 17 13 9 13 12 -2 21 -10 5 -18 17 -18 25 0 11 -6 13
-22 8 -30 -9 -40 -25 -26 -41 8 -10 6 -13 -6 -13 -9 0 -16 5 -16 11 0 6 -9 9
-20 6 -10 -3 -27 1 -37 8 -17 12 -16 14 12 21 17 4 43 15 59 25 16 9 34 15 42
12 13 -5 40 34 30 44 -3 3 -17 -2 -32 -12 -26 -17 -27 -17 -45 6 -23 29 -24
39 -4 39 8 0 15 5 15 10 0 6 13 10 29 10 16 0 31 6 34 13 6 15 -83 17 -96 2
-6 -7 -10 -6 -13 2 -4 8 -16 10 -35 6 -22 -4 -38 0 -59 15 -23 18 -30 19 -45
8z m-15 -372 c-18 -21 -24 -10 -9 18 8 14 14 18 17 10 2 -7 -2 -19 -8 -28z
m-138 -196 c-7 -7 -12 -8 -12 -2 0 14 12 26 19 19 2 -3 -1 -11 -7 -17z m-423
-172 c7 -9 8 -17 2 -20 -5 -3 -11 -1 -13 5 -3 9 -10 8 -28 -1 -23 -13 -24 -13
-5 -21 19 -7 19 -8 -2 -8 -12 -1 -24 -5 -28 -10 -8 -14 -65 -41 -86 -41 -9 0
-31 -13 -47 -30 -19 -19 -36 -28 -46 -24 -10 4 -18 0 -22 -10 -8 -20 -69 -50
-88 -43 -10 4 -13 1 -9 -9 6 -18 -30 -60 -69 -80 -16 -8 -28 -21 -28 -29 0 -8
-5 -15 -12 -15 -17 0 -47 -30 -42 -43 3 -10 -63 -57 -80 -57 -2 0 -1 13 4 29
l8 29 -39 -17 c-21 -10 -50 -30 -63 -44 -26 -28 -50 -35 -61 -17 -7 12 53 72
65 65 4 -3 13 2 20 10 7 8 9 15 4 15 -9 1 36 27 92 54 17 8 37 22 45 32 7 9
32 25 54 35 46 22 71 37 99 62 11 9 25 17 30 17 6 0 22 9 36 20 14 11 33 20
43 20 9 0 17 4 17 8 0 12 56 42 80 42 11 0 18 4 15 10 -3 5 6 12 20 16 15 4
22 11 18 18 -4 6 1 5 11 -3 14 -12 17 -12 14 -1 -2 8 13 22 32 31 43 22 45 22
59 5z m-657 -498 c-7 -7 -12 -8 -12 -2 0 6 3 14 7 17 3 4 9 5 12 2 2 -3 -1
-11 -7 -17z m-1244 -16 c2 -7 -6 -12 -17 -12 -21 0 -27 11 -14 24 9 9 26 2 31
-12z m1062 -2 c0 -5 -8 -10 -17 -10 -15 0 -16 2 -3 10 19 12 20 12 20 0z
m-1060 -35 c0 -8 -4 -15 -10 -15 -5 0 -10 7 -10 15 0 8 5 15 10 15 6 0 10 -7
10 -15z m860 -45 c12 -8 9 -10 -13 -10 -16 0 -26 4 -22 10 8 12 16 12 35 0z
m-1307 -1368 c-3 -9 -3 -14 2 -10 4 4 16 3 26 -3 15 -8 17 -14 9 -29 -6 -11
-17 -20 -25 -20 -8 0 -15 -7 -15 -15 0 -8 -4 -15 -10 -15 -5 0 -8 25 -6 58 4
68 4 65 16 57 5 -3 6 -13 3 -23z"/>
<path d="M3150 6329 c0 -5 5 -7 10 -4 6 3 10 8 10 11 0 2 -4 4 -10 4 -5 0 -10
-5 -10 -11z"/>
<path d="M3392 6200 c0 -14 2 -19 5 -12 2 6 2 18 0 25 -3 6 -5 1 -5 -13z"/>
<path d="M6235 6210 c3 -5 8 -10 11 -10 2 0 4 5 4 10 0 6 -5 10 -11 10 -5 0
-7 -4 -4 -10z"/>
<path d="M6061 6144 c0 -11 3 -14 6 -6 3 7 2 16 -1 19 -3 4 -6 -2 -5 -13z"/>
<path d="M6050 6103 c0 -10 4 -24 9 -32 13 -21 24 5 11 29 -13 25 -20 26 -20
3z"/>
<path d="M3710 6020 c-25 -38 -48 -70 -52 -70 -5 0 -8 -7 -8 -15 0 -8 -9 -24
-21 -36 -27 -27 -18 -34 22 -20 18 6 45 11 61 11 48 0 78 46 78 119 0 103 -20
106 -80 11z"/>
<path d="M5339 5889 c-57 -66 -128 -145 -156 -176 -29 -31 -53 -60 -53 -65 0
-5 -12 -20 -26 -35 -17 -17 -23 -31 -18 -42 4 -9 7 -28 6 -44 -1 -24 1 -26 17
-17 10 5 38 33 62 62 24 29 46 55 50 58 3 3 34 39 68 80 190 225 195 230 203
218 4 -7 5 3 1 22 -6 35 -24 60 -41 60 -4 0 -55 -54 -113 -121z"/>
<path d="M5944 5925 c-11 -18 -14 -29 -7 -36 7 -7 14 0 22 22 14 41 7 48 -15
14z"/>
<path d="M5002 5757 c-21 -25 -33 -67 -19 -67 13 0 47 50 47 69 0 15 -15 14
-28 -2z"/>
<path d="M3121 5556 c-13 -33 -9 -43 8 -22 7 8 11 23 8 33 -3 14 -6 12 -16
-11z"/>
<path d="M4702 5438 c-17 -17 -15 -68 2 -68 8 0 20 -2 28 -5 23 -9 41 10 30
31 -6 11 -13 27 -16 37 -6 20 -27 22 -44 5z"/>
<path d="M4183 5413 c-17 -6 -16 -23 1 -23 8 0 16 7 20 15 6 15 1 17 -21 8z"/>
<path d="M3677 5316 c10 -14 26 -27 35 -29 12 -3 8 4 -11 24 -36 35 -48 38
-24 5z"/>
<path d="M3740 5260 c0 -5 5 -10 11 -10 5 0 7 5 4 10 -3 6 -8 10 -11 10 -2 0
-4 -4 -4 -10z"/>
<path d="M2961 5184 c0 -11 3 -14 6 -6 3 7 2 16 -1 19 -3 4 -6 -2 -5 -13z"/>
<path d="M3688 3413 c7 -3 16 -2 19 1 4 3 -2 6 -13 5 -11 0 -14 -3 -6 -6z"/>
<path d="M3488 3393 c6 -2 18 -2 25 0 6 3 1 5 -13 5 -14 0 -19 -2 -12 -5z"/>
<path d="M3578 3393 c6 -2 18 -2 25 0 6 3 1 5 -13 5 -14 0 -19 -2 -12 -5z"/>
<path d="M7307 3317 c-3 -8 -2 -19 3 -26 5 -9 9 -7 13 8 6 23 -8 39 -16 18z"/>
<path d="M7337 3284 c-4 -4 -7 -18 -7 -30 0 -13 -4 -26 -10 -29 -5 -3 -10 -15
-10 -26 0 -10 5 -19 10 -19 16 0 11 -32 -7 -46 -16 -13 -17 -15 -2 -26 9 -7
18 -20 22 -28 4 -10 6 -11 6 -2 1 7 6 10 11 7 6 -3 10 -1 10 4 0 6 5 11 11 11
6 0 9 -7 5 -15 -3 -8 -1 -15 4 -15 6 0 10 3 11 8 0 4 2 15 4 24 2 9 -3 22 -11
29 -10 8 -11 16 -3 31 15 29 -25 140 -44 122z"/>
<path d="M6645 3142 c-99 -32 -75 -40 70 -22 130 15 139 18 124 36 -18 22
-104 16 -194 -14z"/>
<path d="M3050 2965 c0 -8 2 -15 4 -15 2 0 6 7 10 15 3 8 1 15 -4 15 -6 0 -10
-7 -10 -15z"/>
<path d="M4346 2898 c-2 -7 -7 -32 -10 -56 -7 -47 -7 -47 46 -10 14 10 34 18
43 18 9 0 73 -18 143 -41 184 -59 182 -58 182 -48 0 5 -4 9 -8 9 -15 0 -30 45
-21 62 7 12 3 17 -19 21 -26 5 -54 13 -137 38 -61 19 -214 24 -219 7z"/>
<path d="M5885 2901 c-6 -5 -25 -11 -44 -13 -31 -3 -33 -5 -35 -44 l-2 -41 40
9 c23 5 56 12 73 15 30 5 33 8 31 42 -1 32 -4 37 -28 39 -14 1 -30 -2 -35 -7z"/>
<path d="M4042 2834 c-17 -18 -16 -104 1 -104 19 0 47 37 47 63 0 31 -32 58
-48 41z"/>
<path d="M5709 2850 c-6 -38 -11 -56 -20 -66 -9 -11 -4 -11 22 -4 17 5 33 11
34 12 1 2 -6 17 -16 33 -11 17 -19 28 -20 25z"/>
<path d="M4810 2817 c0 -7 -9 -23 -20 -35 -11 -12 -20 -23 -20 -25 0 -6 74
-25 144 -37 66 -11 244 -12 319 -2 l47 7 -23 25 c-13 14 -22 30 -20 37 3 7 -9
11 -31 10 -25 -1 -38 -7 -47 -24 -16 -29 -43 -30 -63 -1 -17 24 -75 36 -173
37 -34 1 -65 6 -68 11 -9 15 -45 12 -45 -3z"/>
<path d="M5383 2817 c-43 -8 -53 -14 -53 -30 0 -11 -7 -29 -17 -39 -15 -17
-14 -18 45 -18 79 0 256 20 274 31 10 7 8 12 -9 24 -13 9 -23 23 -23 31 0 11
-17 14 -82 13 -46 -1 -107 -6 -135 -12z"/>
<path d="M6992 2694 c-31 -22 -28 -58 7 -83 16 -12 35 -21 43 -21 41 1 67 62
42 98 -18 26 -60 29 -92 6z"/>
<path d="M3127 2592 c-20 -4 -20 -15 1 -109 6 -26 6 -43 0 -43 -5 0 -6 -4 -3
-10 3 -5 -2 -10 -12 -10 -15 0 -18 -7 -17 -40 0 -27 -3 -40 -13 -40 -7 0 -12
3 -12 8 1 4 1 14 0 22 -1 13 -2 13 -11 0 -18 -27 -11 -40 23 -41 24 -1 27 -3
12 -7 -21 -7 -32 -32 -14 -32 5 0 7 -4 4 -10 -3 -5 -1 -10 5 -10 6 0 15 -10
20 -22 5 -13 9 -17 9 -10 1 17 26 42 41 42 8 0 10 8 7 21 -6 24 1 49 14 49 5
0 9 -7 9 -15 0 -8 4 -15 9 -15 5 0 14 -15 21 -32 6 -18 20 -50 31 -71 10 -22
19 -47 19 -58 0 -10 3 -19 8 -19 4 0 13 -15 21 -32 8 -18 23 -53 34 -77 20
-42 20 -46 4 -73 -9 -16 -17 -33 -17 -38 0 -4 34 -34 75 -65 41 -30 86 -71
101 -90 24 -32 54 -47 54 -27 0 4 -16 27 -36 52 -40 50 -64 101 -64 136 0 12
-4 26 -10 29 -5 3 -10 30 -10 60 0 30 -4 56 -9 59 -5 3 -12 18 -16 33 -3 16
-12 42 -19 58 -7 17 -28 66 -46 110 -18 44 -40 98 -50 120 -9 22 -23 57 -31
78 -7 20 -17 37 -21 37 -4 0 -8 9 -8 20 0 11 -6 21 -12 22 -42 5 -69 18 -62
29 3 5 11 6 17 3 7 -4 8 -3 4 1 -9 11 -25 13 -50 7z"/>
<path d="M2961 2320 c-1 -8 -4 -33 -7 -55 -4 -29 -3 -36 5 -25 8 12 13 12 22
3 10 -10 10 -18 1 -38 -7 -14 -12 -37 -12 -51 0 -22 2 -23 20 -14 15 8 20 21
20 53 0 24 -4 47 -10 53 -5 5 -16 27 -24 49 -8 22 -15 33 -15 25z"/>
<path d="M2932 2285 c0 -16 2 -22 5 -12 2 9 2 23 0 30 -3 6 -5 -1 -5 -18z"/>
<path d="M6170 2248 c1 -15 39 -153 66 -240 18 -57 19 -58 55 -58 20 0 41 6
47 13 20 24 -26 195 -63 233 -16 16 -89 64 -97 64 -5 0 -8 -6 -8 -12z"/>
<path d="M3023 2175 c0 -22 2 -30 4 -17 2 12 2 30 0 40 -3 9 -5 -1 -4 -23z"/>
<path d="M3150 2198 c0 -7 5 -20 10 -28 8 -12 10 -11 10 7 0 12 -4 25 -10 28
-5 3 -10 0 -10 -7z"/>
<path d="M6010 2158 c-11 -12 -20 -30 -20 -40 0 -11 -4 -16 -10 -13 -6 4 -10
-7 -10 -24 0 -17 4 -31 9 -31 5 0 11 -10 13 -22 2 -16 9 -22 22 -20 10 2 22
-1 26 -7 3 -6 12 11 19 39 7 27 16 50 20 50 7 0 7 11 2 52 -1 10 -31 38 -41
38 -5 0 -18 -10 -30 -22z"/>
<path d="M3180 2140 c0 -5 4 -10 9 -10 6 0 13 5 16 10 3 6 -1 10 -9 10 -9 0
-16 -4 -16 -10z"/>
<path d="M7055 2060 c-3 -5 1 -10 9 -10 9 0 16 5 16 10 0 6 -4 10 -9 10 -6 0
-13 -4 -16 -10z"/>
<path d="M6815 1850 c3 -5 10 -10 16 -10 5 0 9 5 9 10 0 6 -7 10 -16 10 -8 0
-12 -4 -9 -10z"/>
<path d="M6354 1819 c-3 -6 -1 -16 5 -22 12 -12 64 10 55 25 -7 12 -52 10 -60
-3z"/>
<path d="M6728 1756 c-18 -13 -24 -36 -10 -36 13 0 52 30 52 41 0 13 -22 11
-42 -5z"/>
</g>
</svg>
